<svg xmlns="http://www.w3.org/2000/svg" viewBox="0 0 500 500"><g id="freepik--background-complete--inject-2"><path d="M118.81,225.51l-13.13.28L99,225.9c-2.23,0-4.46,0-6.69,0h-.45v-.45l0-11.19v-.5h.51l13.24.06c4.41,0,8.82.11,13.24.16h.27v.27c0,1.9-.09,3.78-.13,5.65Zm0,0-.15-5.66c0-1.86-.11-3.7-.13-5.53l.28.27c-4.42,0-8.83.16-13.24.16l-13.24.07.5-.5-.06,11.19-.44-.45c2.18,0,4.35,0,6.54.06l6.58.11Z" style="fill:#ebebeb"></path><path d="M104,239.62l-13.12.28-6.66.11c-2.23,0-4.46,0-6.7.05h-.44v-.45l-.06-11.19v-.5h.5l13.24.06c4.42,0,8.83.11,13.24.16h.28v.27c0,1.9-.09,3.78-.13,5.65Zm0,0-.14-5.66c0-1.86-.11-3.7-.13-5.53l.27.27c-4.41.05-8.82.16-13.24.16l-13.24.07.5-.5,0,11.19-.45-.45c2.19,0,4.36,0,6.55.06l6.58.11Z" style="fill:#ebebeb"></path><path d="M133.58,239.62l-13.13.28-6.66.11c-2.22,0-4.46,0-6.69.05h-.45v-.45l-.05-11.19v-.5h.5l13.24.06c4.41,0,8.82.11,13.24.16h.27v.27c0,1.9-.08,3.78-.13,5.65Zm0,0-.14-5.66c-.05-1.86-.12-3.7-.13-5.53l.27.27c-4.42.05-8.83.16-13.24.16l-13.24.07.5-.5-.06,11.19-.44-.45c2.18,0,4.36,0,6.54.06l6.58.11Z" style="fill:#ebebeb"></path><path d="M446.27,56.29l-13.12.28-6.66.11c-2.23,0-4.47,0-6.7.06h-.44v-.45l-.06-11.19v-.5h.5l13.24.06c4.42,0,8.83.12,13.24.17h.28v.27c0,1.9-.09,3.79-.13,5.65Zm0,0-.14-5.65c0-1.87-.11-3.71-.13-5.54l.27.27c-4.41.05-8.82.16-13.24.17l-13.24.06.5-.5-.05,11.19-.45-.45c2.18,0,4.36,0,6.55.06l6.58.11Z" style="fill:#ebebeb"></path><path d="M461,70.4l-13.12.28-6.66.11c-2.23,0-4.46,0-6.7.06h-.44V70.4l-.06-11.19v-.5h.5l13.24.06c4.42,0,8.83.12,13.24.17h.28v.27c0,1.9-.09,3.79-.13,5.65Zm0,0-.14-5.65c0-1.87-.11-3.71-.13-5.54l.27.27c-4.41.05-8.82.16-13.24.17l-13.24.06.5-.5L435,70.4l-.45-.45c2.19,0,4.36,0,6.55.06l6.58.11Z" style="fill:#ebebeb"></path><path d="M65.44,56.3l-13.13.28-6.66.11c-2.23.05-4.46,0-6.69.06h-.45V56.3l0-11.19v-.5H39l13.24.07c4.41,0,8.82.11,13.24.16h.27v.27c0,1.9-.09,3.79-.13,5.66Zm0,0-.15-5.65c0-1.86-.11-3.71-.13-5.54l.28.28c-4.42,0-8.83.15-13.24.16L39,45.61l.49-.5L39.4,56.3,39,55.86c2.18,0,4.35,0,6.54,0l6.58.11Z" style="fill:#ebebeb"></path><path d="M394.34,316.51l13.12-.28,6.66-.11c2.23-.05,4.47,0,6.7-.06h.44v.45l.06,11.19v.5h-.5l-13.24-.07c-4.42,0-8.83-.11-13.24-.16h-.28v-.27c0-1.9.09-3.79.13-5.66Zm0,0,.14,5.65c0,1.86.11,3.71.13,5.54l-.27-.28c4.41-.05,8.82-.15,13.24-.16l13.24-.06-.5.5.05-11.19.45.44c-2.18,0-4.36,0-6.55-.05l-6.58-.11Z" style="fill:#ebebeb"></path><path d="M409.11,302.4l13.12-.28,6.66-.11c2.23-.05,4.47,0,6.7-.06H436v.45l.06,11.19v.5h-.5L422.35,314c-4.41,0-8.83-.11-13.24-.16h-.28v-.27c0-1.9.08-3.79.13-5.66Zm0,0,.14,5.65c.05,1.86.11,3.71.13,5.54l-.27-.28c4.41-.05,8.83-.15,13.24-.16l13.24-.06-.5.5.05-11.19.45.44c-2.18,0-4.36,0-6.55,0l-6.58-.11Z" style="fill:#ebebeb"></path><rect x="61.35" y="56.16" width="98.28" height="95.22" style="fill:#ebebeb"></rect><rect x="72.58" y="67.04" width="75.82" height="73.46" style="fill:#fff"></rect><rect x="72.58" y="67.04" width="2.96" height="73.46" style="fill:#dbdbdb"></rect><rect x="159.64" y="56.16" width="2.96" height="95.22" style="fill:#dbdbdb"></rect><path d="M93.93,113c7.2,15.88,34.9,13,36.59-6.6.86-9.86-6.14-21.85-19.84-21.85h-.06C94.52,85.78,89,102.09,93.93,113Z" style="fill:#ebebeb"></path><path d="M92.61,80.6a6.48,6.48,0,0,1,4.08,2c1.11,1.05,2.35,3,1.87,4.53-.12.4-.38.33-.8.31-1.43,0-2.46-1-3.48-1.9a19.93,19.93,0,0,1-2.74-3.07A1.24,1.24,0,0,1,92.61,80.6Z" style="fill:#ebebeb"></path><path d="M103.93,74.64a6.79,6.79,0,0,1,2.84,3.92c.43,1.27.79,3.17-.16,4.25a.67.67,0,0,1-.79.1c-1.14-.54-1.65-2.2-2.1-3.29a11,11,0,0,1-1.1-4.22A.88.88,0,0,1,103.93,74.64Z" style="fill:#ebebeb"></path><path d="M85.72,89.24c2.54-.56,6,.29,7,3a.76.76,0,0,1-.53.92,4.57,4.57,0,0,1-3-.25c-1.15-.35-2.34-.43-3.47-.87S84.2,89.57,85.72,89.24Z" style="fill:#ebebeb"></path><path d="M116.37,77.46a9.23,9.23,0,0,1,2.3-3c.46-.46,1.08,0,1,.63-.17,1.13-.14,2.3-.32,3.45a9.41,9.41,0,0,1-.86,3.27,1.46,1.46,0,0,1-2.7-.38A6.7,6.7,0,0,1,116.37,77.46Z" style="fill:#ebebeb"></path><path d="M85,99a6.87,6.87,0,0,1,4.66,1.77.86.86,0,0,1-.18,1.34c-1.53.82-3.07.59-4.74.44-1.16-.1-3.76,0-3.64-1.76S83.75,98.87,85,99Z" style="fill:#ebebeb"></path><path d="M83.52,113.17c1.51-2.06,3.72-3.75,6.38-3.5a.94.94,0,0,1,.8,1.4c-1.4,2.24-3.86,3.2-6.42,3.43A.88.88,0,0,1,83.52,113.17Z" style="fill:#ebebeb"></path><path d="M88,125.35a7.58,7.58,0,0,1,2.67-3.41,7.9,7.9,0,0,1,4.23-2.09c.52-.06.77.59.62,1.08a11.41,11.41,0,0,1-1.18,2.15,8.09,8.09,0,0,1-1.61,1.9,5.13,5.13,0,0,1-4,1.39C88.31,126.32,87.81,125.89,88,125.35Z" style="fill:#ebebeb"></path><path d="M103.76,124.76a.72.72,0,0,1,1.21,0,5.53,5.53,0,0,1,.28,3.87c-.25,1.43-.73,3.26-1.86,4.23a1.41,1.41,0,0,1-2.33-.62C100.33,129.54,102.29,126.82,103.76,124.76Z" style="fill:#ebebeb"></path><path d="M116.65,124.35a.92.92,0,0,1,1.43-.18,6.81,6.81,0,0,1,1.83,4c.15,1.32.52,3.07-.13,4.27a1.35,1.35,0,0,1-2.09.27c-1-.84-1.33-2.8-1.6-4A6.1,6.1,0,0,1,116.65,124.35Z" style="fill:#ebebeb"></path><path d="M127.68,118a4.81,4.81,0,0,1,1.61.43,13.08,13.08,0,0,1,1.56,1.12,20.9,20.9,0,0,0,2.55,2,1.09,1.09,0,0,1-.55,2,5.44,5.44,0,0,1-4.09-1,6.21,6.21,0,0,1-1.58-1.69,4,4,0,0,1-.45-2.06A.76.76,0,0,1,127.68,118Z" style="fill:#ebebeb"></path><path d="M133.45,107.45a5.43,5.43,0,0,1,4.67,1c.91.71,2.08,2.14,1.63,3.38a.76.76,0,0,1-.56.56,6.26,6.26,0,0,1-3-.75c-1.43-.51-2.66-.75-3.61-2A1.5,1.5,0,0,1,133.45,107.45Z" style="fill:#ebebeb"></path><path d="M132,96.68a3.37,3.37,0,0,1,2.14-1.25,27.54,27.54,0,0,1,4.11-.77c.74-.12,1.62.64,1.09,1.41a8,8,0,0,1-3,2.79c-1.31.63-3.29,1.28-4.31-.16A1.83,1.83,0,0,1,132,96.68Z" style="fill:#ebebeb"></path><path d="M125.12,86.73c.47-2.6,3.23-3.77,5.44-4.45.92-.29,1.39.85.87,1.49s-1.12,1.48-1.71,2.2-.9,1.42-1.37,2.12A1.78,1.78,0,0,1,125.12,86.73Z" style="fill:#ebebeb"></path><path d="M105.57,98.18c0,.72-.59-.69-1.32-.69s-1.31,1.41-1.31.69a1.32,1.32,0,1,1,2.63,0Z" style="fill:#a6a6a6"></path><path d="M119.27,98.18c0,.72-.59-.67-1.31-.67s-1.32,1.39-1.32.67a1.32,1.32,0,1,1,2.63,0Z" style="fill:#a6a6a6"></path><path d="M101.77,101.66a3.13,3.13,0,1,1-3.13-3.13A3.13,3.13,0,0,1,101.77,101.66Z" style="fill:#fff"></path><path d="M127.26,101.66a3.13,3.13,0,1,1-3.13-3.13A3.13,3.13,0,0,1,127.26,101.66Z" style="fill:#fff"></path><path d="M108.57,98.59a2.78,2.78,0,0,0,1.09,1.07A2.94,2.94,0,0,0,111,100a3,3,0,0,0,1.36-.3,2.89,2.89,0,0,0,1.09-1.06,2,2,0,0,1-.67,1.64,2.64,2.64,0,0,1-1.78.62,2.78,2.78,0,0,1-1.77-.63A2,2,0,0,1,108.57,98.59Z" style="fill:#a6a6a6"></path><rect x="337.4" y="143.16" width="98.28" height="95.22" style="fill:#ebebeb"></rect><rect x="348.64" y="154.04" width="75.82" height="73.46" style="fill:#fff"></rect><rect x="348.64" y="154.04" width="2.96" height="73.46" style="fill:#dbdbdb"></rect><rect x="435.69" y="143.16" width="2.96" height="95.22" style="fill:#dbdbdb"></rect><path d="M415.11,194.24a32.34,32.34,0,0,0-9.35-12.87,22.59,22.59,0,0,0-17.95-5.27,23.54,23.54,0,0,0-5.71,1.5c-10.44,4.19-14.53,14.73-15.45,18.5a13.84,13.84,0,0,1-2.9-.72c-.43-.43,4.31-20.7,23.32-23.34a26.65,26.65,0,0,1,3-.24,24.33,24.33,0,0,1,14.57,4.47c7.74,5.34,11.9,13.83,12.47,16.37C417.24,193.12,416.36,193.7,415.11,194.24Z" style="fill:#a6a6a6"></path><path d="M415.11,194.24a26.22,26.22,0,0,1-2.69,1,29.45,29.45,0,0,0-8.1-10.79,20.11,20.11,0,0,0-15.92-4.66,21.18,21.18,0,0,0-6,1.72c-7.94,3.64-11.48,11.45-12.6,15.19-1.13-.19-2.23-.39-3.19-.57.92-3.77,5-14.31,15.45-18.5a23.54,23.54,0,0,1,5.71-1.5,22.59,22.59,0,0,1,17.95,5.27A32.34,32.34,0,0,1,415.11,194.24Z" style="fill:#c7c7c7"></path><path d="M412.42,195.21a23.63,23.63,0,0,1-3.18.73,25,25,0,0,0-7.88-9.21A17,17,0,0,0,389,183.81a18.64,18.64,0,0,0-3.86,1c-6.91,2.59-10.28,8.79-11.62,12.49-1.11-.17-2.4-.39-3.68-.61,1.12-3.74,4.66-11.55,12.6-15.19a21.18,21.18,0,0,1,6-1.72,20.11,20.11,0,0,1,15.92,4.66A29.45,29.45,0,0,1,412.42,195.21Z" style="fill:#dbdbdb"></path><path d="M409.24,195.94a1.92,1.92,0,0,1-1,0c-.47-.35-4.18-5.61-9.64-8.29a13.82,13.82,0,0,0-7.34-1.52,14.2,14.2,0,0,0-2.61.48c-8.1,2.28-11,11.11-12,11.11-.23,0-1.45-.18-3.06-.43,1.34-3.7,4.71-9.9,11.62-12.49a18.64,18.64,0,0,1,3.86-1,17,17,0,0,1,12.36,2.92A25,25,0,0,1,409.24,195.94Z" style="fill:#ebebeb"></path><path d="M420.94,197.5a6.75,6.75,0,0,1-.39,2.69,6.63,6.63,0,0,1-3.25,3.67c-4.09,2.18-7.38-1.51-7.38-1.51a6.37,6.37,0,0,1-4.39,2.4,4.42,4.42,0,0,1-4.16-2.68s-2.54-.67-2.57-2.68c0-2.68,3-2.52,3-2.52s-.49-4.72,3-5.92a5.09,5.09,0,0,1,3.31-.07,5.58,5.58,0,0,1,2.38,1.54s.82-3.57,4.31-3.69c2.74-.1,4.35,3.05,4.35,3.05a3,3,0,0,1,3.15,1.61A3.4,3.4,0,0,1,420.94,197.5Z" style="fill:#ebebeb"></path><path d="M358.72,194.5a7,7,0,0,1,1.21-2.53,6.87,6.87,0,0,1,4.33-2.65c4.7-.91,6.84,3.74,6.84,3.74a6.56,6.56,0,0,1,5.06-1,4.57,4.57,0,0,1,3.3,3.91s2.31,1.43,1.73,3.43c-.78,2.66-3.73,1.59-3.73,1.59s-.95,4.81-4.76,4.94a5.29,5.29,0,0,1-3.3-.94,5.75,5.75,0,0,1-1.88-2.24s-1.9,3.27-5.38,2.34c-2.74-.74-3.37-4.34-3.37-4.34a3.13,3.13,0,0,1-2.63-2.56A3.53,3.53,0,0,1,358.72,194.5Z" style="fill:#ebebeb"></path><path d="M384.61,181.81c0,.73-.59-.68-1.32-.68s-1.31,1.41-1.31.68a1.32,1.32,0,1,1,2.63,0Z" style="fill:#a6a6a6"></path><path d="M398.32,181.81c0,.73-.59-.67-1.32-.67s-1.31,1.4-1.31.67a1.32,1.32,0,1,1,2.63,0Z" style="fill:#a6a6a6"></path><path d="M380.81,185.29a3.13,3.13,0,1,1-3.13-3.13A3.13,3.13,0,0,1,380.81,185.29Z" style="fill:#fff"></path><path d="M406.3,185.29a3.13,3.13,0,1,1-3.13-3.13A3.13,3.13,0,0,1,406.3,185.29Z" style="fill:#fff"></path><path d="M387.61,182.22a2.78,2.78,0,0,0,1.09,1.07,3,3,0,0,0,1.37.29,2.61,2.61,0,0,0,2.44-1.36,1.94,1.94,0,0,1-.67,1.65,2.63,2.63,0,0,1-1.78.61,2.67,2.67,0,0,1-1.76-.62A2,2,0,0,1,387.61,182.22Z" style="fill:#a6a6a6"></path><polygon points="41.33 345.17 257.03 345.17 261.52 256.66 36.84 256.66 41.33 345.17" style="fill:#ebebeb"></polygon><path d="M246.81,297.17H156.63l-1.69-30.72h93.84Zm-89.15-1.09h88.13l1.83-28.55H156.09Z" style="fill:#dbdbdb"></path><path d="M245.15,332.52h-85l-1.38-27.73h88.1Zm-84-1.09h82.92l1.6-25.55H159.93Z" style="fill:#dbdbdb"></path><path d="M210.4,285.14H195.25l-1-7.41h17.07Zm-14.19-1.09h13.24l.67-5.23H195.53Z" style="fill:#dbdbdb"></path><path d="M210.4,322.36H195.25l-1-7.41h17.07Zm-14.19-1.09h13.24l.67-5.23H195.53Z" style="fill:#dbdbdb"></path><path d="M140.74,297.17H50.56l-1.69-30.72h93.84Zm-89.15-1.09h88.13l1.83-28.55H50Z" style="fill:#dbdbdb"></path><path d="M139.07,332.52h-85l-1.38-27.73h88.1Zm-83.95-1.09h82.93l1.6-25.55H53.85Z" style="fill:#dbdbdb"></path><path d="M104.33,285.14H89.18l-1-7.41h17.07Zm-14.2-1.09h13.24l.68-5.23H89.46Z" style="fill:#dbdbdb"></path><path d="M104.33,322.36H89.18l-1-7.41h17.07Zm-14.2-1.09h13.24l.68-5.23H89.46Z" style="fill:#dbdbdb"></path><polygon points="60.67 345.17 59.32 354.81 56.6 374.18 51.27 374.18 51.27 345.17 60.67 345.17" style="fill:#ebebeb"></polygon><polygon points="60.67 345.17 59.32 354.81 51.27 354.81 51.27 345.17 60.67 345.17" style="fill:#dbdbdb"></polygon><polygon points="237.69 345.17 239.04 354.81 241.77 374.18 247.09 374.18 247.09 345.17 237.69 345.17" style="fill:#ebebeb"></polygon><polygon points="237.69 345.17 239.04 354.81 247.09 354.81 247.09 345.17 237.69 345.17" style="fill:#dbdbdb"></polygon></g><g id="freepik--Shadow--inject-2"><ellipse cx="250" cy="433.98" rx="179.06" ry="21.94" style="fill:#ebebeb"></ellipse></g><g id="freepik--Floor--inject-2"><polygon points="32.78 374.18 87.08 373.94 141.39 373.85 250 373.68 358.61 373.85 412.92 373.94 467.22 374.18 412.92 374.43 358.61 374.51 250 374.68 141.39 374.51 87.08 374.42 32.78 374.18" style="fill:#263238"></polygon></g><g id="freepik--Plants--inject-2"><path d="M132.49,336.82c-5.05.18-10.68.46-14.87-2.81-3.86-3-7.3-7.53-6.79-12.7.14-1.48.48-2.39,2.06-1.76,2.41,1,4.27,3.62,5.94,5.48a51.2,51.2,0,0,0,7,6.65c1.8,1.37,3.74,2.57,5.57,3.9l.69.51.26.2h.14a.25.25,0,0,1,.21.11.19.19,0,0,1,0,.09A.27.27,0,0,1,132.49,336.82Z" style="fill:#455a64"></path><path d="M132.74,336.49c-4.44-.08-9.23.12-12.78-2.89a20.72,20.72,0,0,1-4.13-5c-.51-.84-2-3.33-1.41-4.32,1.15-1.79,6.44,5.52,7.18,6.22a21.64,21.64,0,0,0,9.8,5.09l.69.51a24.28,24.28,0,0,1-7.37-2.83c-3.15-1.88-4.9-4.66-7.37-7.25-.53-.56-2.13-2.45-2.74-1.28-.4.78,1.09,3.22,1.41,3.74a20.53,20.53,0,0,0,3.89,4.76c3.54,3.09,8.32,3,12.79,3.17A.19.19,0,0,1,132.74,336.49Z" style="fill:#fff"></path><path d="M135.28,339.9c-.05.19-.09.39-.13.58v0a.15.15,0,0,1-.09.11.21.21,0,0,1-.27-.11.13.13,0,0,1,0-.12s0-.05,0-.08l.06-.17h0s0,0,0-.06c-.89-3.34-1.24-6.82-2.18-10.16-.9-3.19-2-6.32-2.67-9.58-.41-2.05-1.84-12.36,2.7-11.08,2,.57,3.4,3.49,4.16,5.23a21.2,21.2,0,0,1,1.67,7.4C138.85,328.16,136.55,333.88,135.28,339.9Z" style="fill:#455a64"></path><path d="M136.73,327.07a24.89,24.89,0,0,0-.73-7c-.2-.8-1.19-4.58-2.47-4.49-.83.05-1,1.69-1,2.23-.29,2.29.45,4.64.9,6.87a95.19,95.19,0,0,1,1.66,13.76c0,.29-.08.59-.11.88s-.07.48-.1.73a2.42,2.42,0,0,1,0,.25c0,.06,0,.12,0,.19a.2.2,0,0,0,.26.1c0-.18.06-.37.08-.56,0,.16,0,.31,0,.46h0l.09-.48a.43.43,0,0,0,0-.11c0-.26,0-.52,0-.77A102.31,102.31,0,0,0,136.73,327.07Zm-1.53,10.4c-.13-2.7-.4-5.39-.78-8.07-.31-2.16-.71-4.3-1.17-6.43a23.51,23.51,0,0,1-.58-3.65c0-.94.1-4.41,1.89-2.26,1.29,1.57,1.61,4.89,1.76,6.81a35.1,35.1,0,0,1-.12,6.4C136,332.68,135.56,335.08,135.2,337.47Z" style="fill:#fff"></path><path d="M138,353.76h0a.82.82,0,0,1-.18,0c-4.62-.23-10.77.2-14.62-2.85-2.83-2.26-5.62-6.72-4.72-10.5,1-4.27,6.78.85,8.3,2.08a142,142,0,0,1,11.32,11l.06.09h0C138.2,353.7,138.1,353.74,138,353.76Z" style="fill:#455a64"></path><path d="M138.15,353.63c-.26-.17-.53-.33-.79-.51-3-1.91-6-3.95-8.84-6.13-.72-.55-5.92-5.18-6.71-3.53-.47,1,1.25,3,1.8,3.73a14,14,0,0,0,3.51,3.13c3.07,1.92,6.81,2.33,10.29,3.26.17,0,.33.08.49.12l.09.06h0C138.1,353.74,138.19,353.7,138.15,353.63ZM129,351a14.16,14.16,0,0,1-4-2.69c-.77-.73-3.51-3.5-2.78-4.63.39-.61.71-.29,1.44.07a8.64,8.64,0,0,1,1,.57c.78.51,1.49,1.1,2.21,1.67,1.27,1,2.55,2,3.87,3,2.14,1.56,4.35,3,6.61,4.43C134.58,352.52,131.66,352.18,129,351Z" style="fill:#fff"></path><path d="M146.43,344.25a27.28,27.28,0,0,1-7.91,13.82l-.09.05a.21.21,0,0,1-.24-.09.19.19,0,0,1,0-.26l.23-.24c.77-6.28,1.61-12.52,2.26-18.82.15-1.48,1.31-10.92,4.21-9.39,1.79.95,1.91,4.82,2.06,6.56A27.39,27.39,0,0,1,146.43,344.25Z" style="fill:#455a64"></path><path d="M144.76,335.83c-.16-.53-.44-1.07-1-.7-1.13.71-1.58,5.15-1.76,6.38-.78,5.06-2,9.93-3.2,14.89l-.3,1.26-.29.37a.21.21,0,0,0,.24.09.65.65,0,0,1,0-.13c.12-.16.26-.33.37-.5h0a32.18,32.18,0,0,0,4.58-8.91,30.71,30.71,0,0,0,1.34-6.21C145,340.42,145.34,337.73,144.76,335.83Zm-5.93,21.31-.17.25c.05-.17.11-.34.15-.51a90.9,90.9,0,0,0,2.83-11.52c.34-2,.55-4,1-5.95.18-.83.58-3.2,1.27-3.58s.68.54.75,1.07,0,1.08,0,1.44A31.82,31.82,0,0,1,138.83,357.14Z" style="fill:#fff"></path><path d="M139.28,371.61h-.92c0-.81,0-1.63-.06-2.43-.11-3.29-.24-6.57-.43-9.85-.11-1.87-.25-3.72-.44-5.56a1.37,1.37,0,0,1,0-.19c0-.15,0-.3,0-.46s0-.32-.07-.48a39.41,39.41,0,0,0-3.17-12.06c-.58-1.27-1.23-2.52-1.9-3.76l-.2-.35a.41.41,0,0,0-.05-.09c-.06-.13-.13-.25-.2-.37s-.11-.18-.16-.28c-2.14-3.75-4.58-7.35-6.9-11-.66-1-1.33-2.08-2-3.12a1,1,0,0,1-.12-.19l-.15-.23c-2.91-4.59-5.77-9.23-8.8-13.74-.11-.16.16-.31.27-.15,2,3,4.16,5.94,6.26,8.9l.83,1.18,1.66,2.34c1.09,1.57,2.17,3.13,3.23,4.72a133.89,133.89,0,0,1,8.5,13.76c.18.36.35.72.53,1.09s.22.45.31.68.24.52.36.79a42.67,42.67,0,0,1,3.11,14.55c0,.34.05.69.06,1l0,.48a2.28,2.28,0,0,0,0,.26c0,.11,0,.22,0,.34h0c0,.07,0,.16,0,.25,0,.29,0,.59,0,.9.13,3.28.22,6.56.29,9.83C139.2,369.51,139.24,370.56,139.28,371.61Z" style="fill:#455a64"></path><path d="M111.71,312.18c-2.52-3.4-5.76-10.42-2-14.06a4,4,0,0,1,5.28-.39c2,1.42,2.86,4.11,3.49,6.34,1.71,5.95,2.84,12,5,17.84,0,0,.18.5.23.63s-.15.17-.2,0l-.21-.57C119.22,319.1,114.71,316.21,111.71,312.18Z" style="fill:#455a64"></path><path d="M123.45,321.92l-.06-.1a41.43,41.43,0,0,1-2.37-4.4,86.77,86.77,0,0,1-3.63-9.74c-.41-1.28-2.22-7.52-4.45-5-.94,1.05-.81,2.9-.66,4.19a15.79,15.79,0,0,0,1.94,5.85c2,3.61,5.12,6.34,8.39,8.77l.45.34.09.15.07.11a.07.07,0,0,0,0,0,.14.14,0,0,0,.2-.08A.18.18,0,0,0,123.45,321.92Zm-1-.69a33.43,33.43,0,0,1-7.11-7.14,17.49,17.49,0,0,1-2.32-4.73,13.54,13.54,0,0,1-.5-2.29,9.3,9.3,0,0,1-.1-1.75c0-1.29.57-2.69,1.33-2.82.94-.17,1.25.37,1.87,1.45a11.86,11.86,0,0,1,.56,1.13c.41,1,.73,2,1,3,.53,1.65,1.06,3.3,1.66,4.93.4,1.1.83,2.2,1.3,3.27a42.84,42.84,0,0,0,2.77,5.39Z" style="fill:#fff"></path><path d="M367.94,321.68c-.42,3.37-1.06,6.71-1.74,10-.39,1.88-.79,3.76-1.18,5.66-.42,2.08-1,4.19-.47,6.29h0a1,1,0,0,1,0,.29s0,0,0,0a.25.25,0,0,1-.44-.07l0-.14,0-.05a8.16,8.16,0,0,1-.72-1.74,43.9,43.9,0,0,1-1.68-4.88A42.49,42.49,0,0,1,360,326.73a36,36,0,0,1,1-9.37c.6-2.44,1.46-6.09,3.28-8,1.66-1.69,3,1,3.51,2.4C368.85,314.9,368.34,318.49,367.94,321.68Z" style="fill:#455a64"></path><path d="M364.92,314.53c-1.23,0-2.12,4-2.56,5.69a34.89,34.89,0,0,0-1.05,8.26,44.55,44.55,0,0,0,2.55,14.69c.06.19.12.39.19.57l0,.05,0,.13a.25.25,0,0,0,.44.08q-.12-.62-.18-1.23c-.05-.38-.09-.75-.11-1.12a58.39,58.39,0,0,1,.75-12.16C365.61,324.8,366.55,314.54,364.92,314.53ZM364,342.44c.06.55.15,1.09.25,1.63-.13-.4-.25-.79-.37-1.18a49.24,49.24,0,0,1-2.32-13,36,36,0,0,1,.54-7.4,33.82,33.82,0,0,1,1-3.88c.17-.53,1.06-3.85,1.82-3.69.54.12.66,3.11.67,3.17,0,.6,0,1.2,0,1.8,0,1.24-.1,2.48-.2,3.71-.24,2.67-.62,5.33-.94,8A46.05,46.05,0,0,0,364,342.44Z" style="fill:#fff"></path><path d="M387.29,331c-2.25,4.4-6.05,7.77-10,10.66-2.1,1.55-4.28,3-6.41,4.49a34.37,34.37,0,0,0-5.55,4.27l-.21.23a9.24,9.24,0,0,0-1.15,1.58.12.12,0,0,1-.1.07,1.08,1.08,0,0,1-.08.19,0,0,0,1,1-.08,0c0-.07,0-.14,0-.21v0a.14.14,0,0,1,0-.17l0-.07,0-.22c.64-5.14,4.24-10.34,7.28-14.3s6.8-7.47,11.5-9.28c1.18-.45,3.87-1.7,5.07-.74S387.78,330.06,387.29,331Z" style="fill:#455a64"></path><path d="M383.81,331c-1.07-1.07-4.23,1.58-5,2.2a52.93,52.93,0,0,0-6.53,6.35,46.88,46.88,0,0,0-8.34,12.06h0l-.11.14,0,.22a.25.25,0,0,0,0,.07.14.14,0,0,0,0,.17l.15-.18c.39-.48.81-.95,1.23-1.42l.21-.22a101.68,101.68,0,0,1,9.77-8.62,49.16,49.16,0,0,0,6.5-6.32C382.11,334.87,384.71,331.91,383.81,331Zm-1,2.36c-2.66,4.42-7.27,7.64-11.19,10.86a53.92,53.92,0,0,0-7.43,7,50,50,0,0,1,7.72-10.85,66.49,66.49,0,0,1,5.3-5.45,27.46,27.46,0,0,1,3.21-2.58,10.64,10.64,0,0,1,2.18-1.18C384.11,330.79,383.28,332.61,382.82,333.37Z" style="fill:#fff"></path><path d="M363.28,362.7a.26.26,0,0,1-.23.13l.06.08a.08.08,0,0,1,0,.11.07.07,0,0,1-.11,0c-4.17-4.24-8.19-9.4-10.26-15a23.16,23.16,0,0,1-1.49-7.4c-.05-1.74-.14-5.22,1.34-6.48,3-2.54,5.7,8.22,6.1,9.84.74,3,1.23,6,1.91,8.94.75,3.25,1.73,6.44,2.71,9.63A.24.24,0,0,1,363.28,362.7Z" style="fill:#455a64"></path><path d="M363.28,362.7c-.17-.27-.32-.55-.47-.83a50.14,50.14,0,0,1-5.37-14.45,46.35,46.35,0,0,0-2-7.53c-.25-.59-1-2.89-2-1.73-.5.6-.08,4.95.12,6.07a32,32,0,0,0,2.42,7.39,52.25,52.25,0,0,0,6.84,11.1,2.37,2.37,0,0,0,.23.3.08.08,0,0,0,0-.11l-.06-.08A.25.25,0,0,0,363.28,362.7Zm-6-9.25a36.15,36.15,0,0,1-2.87-7.17,26,26,0,0,1-.63-3,17.8,17.8,0,0,1-.2-2.41c0-2,.17-2.47.5-2.54s.49.17,1.07,1.35a12.43,12.43,0,0,1,.83,2.38c.31,1.16.58,2.33.83,3.5.51,2.34,1,4.7,1.66,7a39.07,39.07,0,0,0,4.15,9.4A59.22,59.22,0,0,1,357.23,353.45Z" style="fill:#fff"></path><path d="M376.66,352.39a14.7,14.7,0,0,1-2.74,5.68c-2.47,3.42-5.64,6.26-8.34,9.5-.41.48-.8,1-1.18,1.48,0,.05-.35.77-.35.71s.05-.29.14-.75h0c.43-2.27,1.86-9.1,3.63-12.6a30,30,0,0,1,3.95-6.18c.77-.87,2.57-2.74,3.92-2.33S376.87,351.3,376.66,352.39Z" style="fill:#455a64"></path><path d="M374.45,351c-1.45-.9-5.18,5.77-5.68,6.63a42.39,42.39,0,0,0-4.26,10.17c-.12.4-.22.8-.32,1.21s-.14.73-.14.74.31-.65.35-.71l.19-.26c.33-.41.65-.82,1-1.21,1.62-2.43,3.29-4.83,4.87-7.3a39.5,39.5,0,0,0,3-5.54C373.64,354.29,375.09,351.39,374.45,351Zm-.41,1.88c-2.06,5.8-6.27,10.38-9.48,15.53l-.15.25c0-.15.08-.31.13-.46a48.85,48.85,0,0,1,3.41-8.47,45.25,45.25,0,0,1,2.86-4.77,23.07,23.07,0,0,1,1.79-2.49c.29-.32,1.15-1.19,1.44-1S374.17,352.5,374,352.88Z" style="fill:#fff"></path><path d="M391.2,304.5c-4.3,9.89-15.6,14.49-20.49,24l0,.05c-.15.29-.29.59-.43.89a.19.19,0,0,1-.32.05.13.13,0,0,1,0-.16,1.47,1.47,0,0,1,.1-.22,51.54,51.54,0,0,1,6-17.31c2.48-4.56,5.86-8.82,10.55-11.22,1.16-.59,3.41-1.85,4.71-.86S391.73,303.28,391.2,304.5Z" style="fill:#455a64"></path><path d="M387.32,304.92c-.54-.4-1.37.09-1.84.33a16.62,16.62,0,0,0-3.27,2.24,27.16,27.16,0,0,0-5.21,6.19,56.44,56.44,0,0,0-6.13,12.44c-.33,1-.62,2-.86,3,0,.13-.05.25-.08.38a.21.21,0,0,0,.33-.05c.12-.29.26-.57.4-.86a.29.29,0,0,0,0-.08,33.43,33.43,0,0,1,3.07-5.63,79.69,79.69,0,0,1,6.44-7.65C381.09,314.27,389.22,306.31,387.32,304.92Zm-.68,2.29c-1.31,2.33-3.34,4.22-5.11,6.19s-3.59,4-5.35,6a37.53,37.53,0,0,0-3.76,5.15,28.49,28.49,0,0,0-2.36,4.76,43,43,0,0,1,1.68-4.95l0-.05A74.33,74.33,0,0,1,376,316s0-.07.05-.1a34.43,34.43,0,0,1,4.76-6.65,19.8,19.8,0,0,1,3.39-2.88c1.42-.92,2.66-1.51,3-1.06S387,306.53,386.64,307.21Z" style="fill:#fff"></path><path d="M376.17,316.09c-1.3,2.79-2.53,5.61-3.75,8.45-.58,1.33-1.15,2.66-1.72,4a.29.29,0,0,1,0,.08c-.2.48-.41,1-.62,1.44-1.86,4.34-3.91,8.78-5.05,13.38a40.54,40.54,0,0,0-1,7.43c0,.25,0,.51,0,.77h0c0,.14,0,.28,0,.42v.24c-.08,2.17-.05,4.34,0,6.46.05,2.95.3,5.88.58,8.8a1.07,1.07,0,0,0,0,.25l0,.4a1.49,1.49,0,0,1,0,.21c0,.12,0,.25,0,.37.1.94.18,1.88.26,2.83H364a60.1,60.1,0,0,1-1.09-8.71v-.18c0-.28,0-.57-.05-.85s0-.7-.05-1.05c0-.84-.05-1.68-.07-2.51a61.92,61.92,0,0,1,1-14.58l.09-.39a1,1,0,0,1,0-.17c0-.09,0-.18.06-.28l.12-.45c.07-.26.15-.53.23-.79l.07-.23a92.66,92.66,0,0,1,5-12c.33-.72.66-1.42,1-2.13l.57-1.17.87-1.77,0-.05c1.38-2.78,2.82-5.53,4.18-8.32C376,315.86,376.23,316,376.17,316.09Z" style="fill:#455a64"></path></g><g id="freepik--teddy-bear--inject-2"><path d="M184.31,267.82c-16.13,9.55-35.75,59.32-34.63,74.11s25.4,65.21,48.19,69.08,96.59,5.63,115.68-5.73,35.91-48.07,36.6-61.34S330,275.36,315.4,266.15C303.27,258.47,193.29,262.5,184.31,267.82Z" style="fill:#FFC727"></path><path d="M215.16,306.35c-7.19,8.41-19.42,43.5-18.88,54.3s13.28,47.53,25.47,50.24,52.1,5.39,62.37-3,19-37,19.45-46.7-10.87-49.65-18.24-56.67C269,288.94,230.9,287.93,215.16,306.35Z" style="fill:#fff;opacity:0.6000000000000001"></path><path d="M159.12,344.7c-3.32-.15-28.91,2.71-32.73,1.84s-25.95-4.42-39.61,1.23c-19.31,8-21.65,25.84-17.84,38.63s24.85,53.15,57.82,56.84,81.32-27.81,87.1-30.63S200,346.54,159.12,344.7Z" style="fill:#FFC727"></path><g style="opacity:0.2"><path d="M213.72,404.32c-1.52.74-3.06,1.43-4.58,2.18s-2.87,1.48-4.3,2.22q-4.4,2.28-8.84,4.45-8.9,4.35-18,8.32c-12.09,5.29-24.41,10-36.88,14.32a36.87,36.87,0,0,1-10.8,2.47,65.26,65.26,0,0,1-11.84-1,.08.08,0,0,0,0,.15,70.37,70.37,0,0,0,10.19,1.91,30.62,30.62,0,0,0,10-.89c3.21-.83,6.35-2,9.47-3.09s6.36-2.28,9.52-3.47q18.74-7.09,36.81-15.82,5.07-2.46,10.09-5c1.64-.84,3.29-1.66,4.9-2.56s3.3-1.95,4.95-2.94A.71.71,0,0,0,213.72,404.32Z" style="fill:#030402"></path><path d="M160.87,433.74a11.8,11.8,0,0,0-2.26-2l-1.2-.72h0c.13-1.12.25-2.24.38-3.36a21.33,21.33,0,0,0,.3-3.48.16.16,0,0,0-.3-.08h0a20.82,20.82,0,0,0-1,3.29c-.27.94-.53,1.87-.79,2.81l0,0c-.85-.5-1.72-1-2.61-1.42-.47-.21-.93-.44-1.4-.66l-.57-.25c-.26-.12-.53-.17-.78-.27-.08,0-.13.09-.06.13s.27.27.43.38l.61.44c.41.29.82.58,1.22.88.81.6,1.62,1.19,2.44,1.77l.41.31a27.78,27.78,0,0,0-1.12,6.09.81.81,0,0,0,1.58.24,24.86,24.86,0,0,0,1.1-5.11l.39.32a16.54,16.54,0,0,0,2.54,1.62A.6.6,0,0,0,160.87,433.74Z" style="fill:#030402"></path><path d="M175.41,425.68a33.29,33.29,0,0,0-1.2-3.2c-.23-.51-.47-1-.72-1.54a5.39,5.39,0,0,0-.7-1.32c-.33-.34-.8.06-.47.26,0,.07.05.14.07.22s.12.44.2.65c.12.38.24.76.35,1.14.24.83.44,1.66.65,2.49s.41,1.66.6,2.5a7.54,7.54,0,0,0,.84,2.4.52.52,0,0,0,1-.24A7.63,7.63,0,0,0,175.41,425.68Z" style="fill:#030402"></path><path d="M182.66,425a14.75,14.75,0,0,0-1.62-2.23c-.59-.64-1.21-1.25-1.83-1.86s-1.32-1.16-2-1.73a11.58,11.58,0,0,0-1-.74l-.58-.38c-.2-.13-.42-.21-.62-.33s-.15.05-.09.12.25.34.4.49l.42.47c.29.32.56.65.86,1,.61.63,1.14,1.32,1.7,2a24.16,24.16,0,0,1,1.48,2c.51.74,1.07,1.45,1.61,2.17a.78.78,0,0,0,1.24-.93Z" style="fill:#030402"></path><path d="M203.29,414.53a18,18,0,0,0-.5-3.42,15.33,15.33,0,0,0-1.17-3c-.43-.92-.59-2-1.09-2.88a.08.08,0,0,0-.14,0,5,5,0,0,0,.14,2.84c.2,1,.44,2,.63,3.07a20.59,20.59,0,0,1,.27,3.33,10.87,10.87,0,0,0,.33,3.41.63.63,0,0,0,1.2,0A8,8,0,0,0,203.29,414.53Z" style="fill:#030402"></path><path d="M212.25,405.8c-.43-.61-.89-1.18-1.37-1.74a7.08,7.08,0,0,0-.78-.77,2.13,2.13,0,0,0-.88-.54.09.09,0,0,0-.1.1,2.46,2.46,0,0,0,.38.86c.16.31.33.61.51.92a13,13,0,0,1,.88,1.84c.24.63.52,1.25.73,1.9a11.39,11.39,0,0,0,.88,2.07.65.65,0,0,0,1.21-.3A7.34,7.34,0,0,0,212.25,405.8Z" style="fill:#030402"></path></g><path d="M83.66,381.18c17.51-7.4,64.2,46.35,44.41,55.15S61.9,390.37,83.66,381.18Z" style="fill:#fff;opacity:0.6000000000000001"></path><ellipse cx="104.44" cy="375.45" rx="7.41" ry="6.01" transform="translate(-284.53 351.46) rotate(-70.93)" style="fill:#fff;opacity:0.6000000000000001"></ellipse><ellipse cx="87.56" cy="368.18" rx="6.91" ry="8.51" style="fill:#fff;opacity:0.6000000000000001"></ellipse><path d="M77.58,373.29c1.29,3.71.19,7.47-2.47,8.4s-5.87-1.33-7.16-5.05-.19-7.47,2.47-8.4S76.29,369.57,77.58,373.29Z" style="fill:#fff;opacity:0.6000000000000001"></path><path d="M74,394.52a4,4,0,0,1-1.43.9,67.88,67.88,0,0,1-3.61-9c-.28-1-.53-2-.74-3a8.88,8.88,0,0,1,4.35,2.46C75.33,388.66,76,392.53,74,394.52Z" style="fill:#fff;opacity:0.6000000000000001"></path><path d="M340.88,344.7c3.32-.15,28.91,2.71,32.73,1.84s25.95-4.42,39.61,1.23c19.31,8,21.65,25.84,17.84,38.63s-24.85,53.15-57.82,56.84-81.32-27.81-87.1-30.63S300,346.54,340.88,344.7Z" style="fill:#FFC727"></path><path d="M416.34,381.18c-17.51-7.4-64.2,46.35-44.41,55.15S438.1,390.37,416.34,381.18Z" style="fill:#fff;opacity:0.6000000000000001"></path><ellipse cx="395.56" cy="375.45" rx="6.01" ry="7.41" transform="translate(-100.98 149.88) rotate(-19.07)" style="fill:#fff;opacity:0.6000000000000001"></ellipse><ellipse cx="412.44" cy="368.18" rx="6.91" ry="8.51" style="fill:#fff;opacity:0.6000000000000001"></ellipse><path d="M422.42,373.29c-1.29,3.71-.19,7.47,2.47,8.4s5.87-1.33,7.16-5.05.19-7.47-2.47-8.4S423.71,369.57,422.42,373.29Z" style="fill:#fff;opacity:0.6000000000000001"></path><path d="M431.8,383.42c-.21,1-.46,2-.74,3a67.88,67.88,0,0,1-3.61,9,4,4,0,0,1-1.43-.9c-2-2-1.35-5.86,1.43-8.64A8.88,8.88,0,0,1,431.8,383.42Z" style="fill:#fff;opacity:0.6000000000000001"></path><g style="opacity:0.2"><path d="M286.19,404.32c1.52.74,3.06,1.43,4.58,2.18s2.86,1.48,4.29,2.22c2.94,1.52,5.88,3,8.85,4.45q8.88,4.35,18,8.32c12.09,5.29,24.4,10,36.87,14.32a37,37,0,0,0,10.81,2.47,65.16,65.16,0,0,0,11.83-1c.1,0,.15.12.05.15a70.75,70.75,0,0,1-10.2,1.91,30.56,30.56,0,0,1-10-.89c-3.22-.83-6.35-2-9.48-3.09s-6.35-2.28-9.51-3.47q-18.74-7.09-36.81-15.82-5.08-2.46-10.1-5c-1.64-.84-3.29-1.66-4.89-2.56s-3.31-1.95-4.95-2.94A.71.71,0,0,1,286.19,404.32Z" style="fill:#030402"></path><path d="M309.76,410.13c.35-.28.15-.93-.35-.77a14.85,14.85,0,0,0-5.38,3.19c0-1.77.23-3.54.1-5.31a.08.08,0,0,0-.15,0,26.89,26.89,0,0,0-.67,3.58,24,24,0,0,0-.28,2.69,25.08,25.08,0,0,0-2,2.14,9.29,9.29,0,0,0-1.81,2.91c-.07.22.18.32.34.24h0l0,0h0a21.9,21.9,0,0,0,2.28-2.24c.4-.41.81-.81,1.24-1.21a14.1,14.1,0,0,0,2.31,5.75c.23.36.88.11.71-.32a27.4,27.4,0,0,1-2-6.33c.08-.07.16-.15.24-.21C306.12,412.79,308,411.53,309.76,410.13Z" style="fill:#030402"></path><path d="M323.76,417.32a16.51,16.51,0,0,0-3.78,4.77,22.42,22.42,0,0,0-1.27,2.72,11.58,11.58,0,0,0-.42,1.42c-.06.24-.11.49-.15.73a4.21,4.21,0,0,0,0,.71c0,.08.1.09.14,0a4.14,4.14,0,0,0,.37-.46l.32-.58c.25-.43.49-.86.73-1.3.46-.86.92-1.71,1.45-2.54,1.07-1.63,2.26-3.16,3.45-4.71A.58.58,0,0,0,323.76,417.32Z" style="fill:#030402"></path><path d="M327,418.63a8.52,8.52,0,0,0-1.38,2.86,18.07,18.07,0,0,0-.81,3.24c-.29,1.95-.31,4.41.72,6.17.28.48.94,0,.77-.38a21.89,21.89,0,0,1-.23-2.82,17.67,17.67,0,0,1,.35-2.9c.19-1,.45-2,.72-2.93a10,10,0,0,0,.61-2.95A.44.44,0,0,0,327,418.63Z" style="fill:#030402"></path><path d="M355.9,437.2a16.56,16.56,0,0,1-.48-2.8,14.15,14.15,0,0,1,.06-2.91c.07-.44.16-.88.25-1.31,0-.25.11-.5.18-.74,0-.05.12-.36.16-.56h0a.11.11,0,0,0,.11,0,.24.24,0,0,0,0-.41c-.36-.17-.6.39-.71.6a13.26,13.26,0,0,0-1.32,7.56c.16,1.25.46,2.88,1.45,3.77a.6.6,0,0,0,1-.44A13.32,13.32,0,0,0,355.9,437.2Z" style="fill:#030402"></path></g><path d="M214.61,362.33c.87,22.79-29,32.27-42.85,27.81-14.36-4.63-24.7-31.48-23.51-54.66,1.74-34.33,25.1-69.56,38.85-68.45a2.49,2.49,0,0,1,1.18.37c6.24,3.59-3.33,32.51.61,42.61,4.17,10.65,22.86,31.2,25.48,49.56C214.5,360.51,214.57,361.42,214.61,362.33Z" style="fill:#FFC727"></path><path d="M186.92,268.15a61.42,61.42,0,0,0-12.61,16.05c-.09-.35-.18-.71-.28-1.07-.18-.61-1.2-.52-1.15.16a20.54,20.54,0,0,0,.4,2.82l-.06.12q-1.35-.39-2.73-.66a.27.27,0,0,0-.14.52c.83.28,1.66.59,2.48.91a96.34,96.34,0,0,0-8.52,26.85,16.66,16.66,0,0,0-2.16.2c-.45.08-.34.82.11.8a12.83,12.83,0,0,1,1.87.07c-.25,1.54-.48,3.08-.67,4.61a16.1,16.1,0,0,0-2.59.33c-.58.13-.37.9.14,1a16,16,0,0,0,2.3.07c-.23,2.1-.43,4.19-.55,6.25a85.72,85.72,0,0,0,6.3,37.92,24.93,24.93,0,0,0-2.91,2.3c-.29.26.09.77.41.54a33.33,33.33,0,0,1,2.91-1.93c.47,1.12.94,2.24,1.47,3.33a12.69,12.69,0,0,0-2.38,3.1.48.48,0,0,0,.75.58c.81-.74,1.55-1.55,2.31-2.34A77.72,77.72,0,0,0,185.38,390c.48.49,1.15-.22.74-.74a109.29,109.29,0,0,1-12.86-20.14,23.73,23.73,0,0,0,2.88-2.37c.37-.41,0-1.21-.58-1a9.43,9.43,0,0,0-3,2c-.43-.91-.81-1.85-1.2-2.77a9.78,9.78,0,0,0,1.85-1.09c.37-.3,0-.79-.42-.72a6,6,0,0,0-1.9.73,82.34,82.34,0,0,1-6.26-36.73c.13-2.12.33-4.23.56-6.32a8.3,8.3,0,0,0,3.22-.45c.4-.19.24-.76-.11-.88a7.31,7.31,0,0,0-2.95-.13c.18-1.4.39-2.8.62-4.19.68.11,1.37.24,2.07.34.53.08,1-.67.4-.95a7.16,7.16,0,0,0-2.25-.62,97.31,97.31,0,0,1,7.95-25.1,7.61,7.61,0,0,0,1,1.59.44.44,0,0,0,.74-.31,8.87,8.87,0,0,0-.46-2,6.06,6.06,0,0,0,2.11.78c.37,0,.49-.45.28-.68a6,6,0,0,0-2.67-1.43,89.35,89.35,0,0,1,12.27-18.2A.35.35,0,0,0,186.92,268.15Z" style="fill:#030402;opacity:0.2"></path><path d="M214.4,359.07a61,61,0,0,0-6.41-17.8c-2.9-5.59-6.33-10.88-9.73-16.17-1.69-2.62-3.37-5.26-5-7.93s-3.49-5.54-4.29-8.66c-.87-3.41-.55-7-.53-10.51,0-.68.07-1.6.15-2.64.43-1,.95-1.95,1.28-3,.25-.76.44-1.55.65-2.32a15.44,15.44,0,0,0,.52-2.52c0-.05-.07-.08-.08,0a14.43,14.43,0,0,1-.83,2.56c-.33.77-.8,1.45-1.14,2.21,0,.1-.08.2-.12.3.45-4.14,1.11-8.88,1.18-10,0-.19-.3-.23-.33,0-1.12,7-2.91,13.41-2.93,20.46a28.3,28.3,0,0,0,.36,4.95,18,18,0,0,0,1.55,4.62,89.6,89.6,0,0,0,4.62,8.08c6.36,10.35,13.71,20.38,17.54,32,2,6,3.15,12.54.65,18.55a26.62,26.62,0,0,1-11.07,12.27,53.67,53.67,0,0,1-18,6.31,17.21,17.21,0,0,1-9.11-.65,23.33,23.33,0,0,1-7.43-4.59c-9.55-8.45-13.41-21.33-16.29-33.32-.4-1.64-.8-4.08-1.19-5.72-.07-.27-.46-.14-.41.13,1.14,6.88,2.3,14.63,4.67,21.22a49.13,49.13,0,0,0,9,15.9c3.92,4.51,9.23,8.41,15.31,9.09,3.37.38,6.73-.38,10-1.17a59.92,59.92,0,0,0,9.34-3,33.21,33.21,0,0,0,14.21-10.86,23.25,23.25,0,0,0,3.64-7.61A24.26,24.26,0,0,0,214.4,359.07Z" style="fill:#030402;opacity:0.2"></path><path d="M335.29,385.69a19.94,19.94,0,0,1-7.25,4.45c-14.35,4.63-46.11-5.8-42.61-30.57,2.6-18.36,21.31-38.91,25.48-49.56s-6.75-42.28,1.79-43a9.81,9.81,0,0,1,3.84.54c13.86,4.53,33.42,36.6,35,67.91C352.54,354.53,345.72,376.06,335.29,385.69Z" style="fill:#FFC727"></path><path d="M343.42,329.53a24.38,24.38,0,0,0-4,.08c.07-1,.12-1.94.16-2.91a12.38,12.38,0,0,0,2.83.5c.56,0,.58-.73.12-.91a11.26,11.26,0,0,0-2.9-.66c0-1.18.06-2.37.05-3.55a81.25,81.25,0,0,0-6.51-31.56c-.88-2-1.89-4.14-3-6.23.6-.28,1.2-.57,1.77-.88s.17-1.3-.44-1.05-1.27.57-1.9.89c-3.72-6.64-8.75-13-15.57-15.75-.36-.15-.58.43-.26.62,6.13,3.57,10.84,9.45,14.4,15.89-1,.53-1.91,1.08-2.86,1.6-.32.18-.1.74.25.6,1-.43,2.07-.84,3.11-1.27a79.28,79.28,0,0,1,4.58,10.47,83.69,83.69,0,0,1,4.59,30l-.84-.09c-.34,0-.5.43-.14.53l1,.29c0,1.2-.13,2.4-.22,3.59-.82.06-1.63.11-2.44.11-.42,0-.4.6,0,.64l2.39.2c-1.17,14.52-5.72,28.43-12.05,41.51l-1.28-.23c-.4-.07-.59.52-.17.62l1.1.32c-.32.66-.64,1.32-1,2-.7-.24-1.38-.45-2.05-.65-.35-.11-.47.4-.15.53.63.25,1.23.54,1.83.84q-3.12,6.09-6.66,11.94a.4.4,0,0,0,.69.4q3.71-5.73,7-11.8a49.32,49.32,0,0,0,4.59,2.32c.34.14.62-.38.36-.62a14.19,14.19,0,0,0-4.51-2.55c.35-.67.7-1.34,1-2,1.33.46,2.62,1,4,1.48.52.2.86-.64.37-.9a16.7,16.7,0,0,0-3.91-1.39c6.59-13.07,11.31-27.14,12.6-41.67a14.78,14.78,0,0,0,4.23-.33C344.12,330.35,344,329.57,343.42,329.53Z" style="fill:#030402;opacity:0.2"></path><path d="M285.14,359.07a61,61,0,0,1,6.41-17.8c2.9-5.59,6.33-10.88,9.73-16.17,1.69-2.62,3.37-5.26,5-7.93s3.49-5.54,4.29-8.66c.87-3.41.55-7,.53-10.51,0-.68-.07-1.6-.16-2.64-.42-1-.94-1.95-1.27-3-.25-.76-.44-1.55-.65-2.32a15.44,15.44,0,0,1-.52-2.52c0-.05.07-.08.08,0a14.43,14.43,0,0,0,.83,2.56c.33.77.8,1.45,1.14,2.21.05.1.08.2.12.3-.45-4.14-1.11-8.88-1.18-10,0-.19.3-.23.33,0,1.12,7,2.91,13.41,2.93,20.46a28.3,28.3,0,0,1-.36,4.95,18.35,18.35,0,0,1-1.55,4.62,89.6,89.6,0,0,1-4.62,8.08c-6.36,10.35-13.71,20.38-17.54,32-2,6-3.15,12.54-.65,18.55a26.62,26.62,0,0,0,11.07,12.27,53.67,53.67,0,0,0,18,6.31,17.21,17.21,0,0,0,9.11-.65,23.33,23.33,0,0,0,7.43-4.59c9.55-8.45,13.41-21.33,16.29-33.32.4-1.64.8-4.08,1.19-5.72.07-.27.46-.14.41.13-1.14,6.88-2.3,14.63-4.67,21.22a49.13,49.13,0,0,1-9,15.9c-3.92,4.51-9.23,8.41-15.31,9.09-3.37.38-6.73-.38-10-1.17a59.92,59.92,0,0,1-9.34-3A33.21,33.21,0,0,1,289,376.79a23.25,23.25,0,0,1-3.64-7.61A24.26,24.26,0,0,1,285.14,359.07Z" style="fill:#030402;opacity:0.2"></path><path d="M213.49,139.64c1.49-5.38-1.76-46.14-25.05-47.9-26.8-2-49.56,26-48,50.23s25.42,30.34,42.9,30Z" style="fill:#FFC727"></path><path d="M193.84,139.33c.69-2.56-.79-21.87-11.52-22.69-12.35-1-22.85,12.32-22.12,23.82s11.69,14.37,19.75,14.21Z" style="fill:#fff;opacity:0.6000000000000001"></path><path d="M286.58,136c-1.13-5.47,4.81-45.92,28.17-46.13,26.87-.24,47.73,29.19,44.53,53.29s-27.37,28.59-44.79,27.11Z" style="fill:#FFC727"></path><path d="M306.21,136.94c-.52-2.59,2.23-21.77,13-21.88,12.38-.12,22,13.82,20.49,25.24s-12.62,13.56-20.65,12.86Z" style="fill:#fff;opacity:0.6000000000000001"></path><path d="M189.42,274.78c-4.38-1.89-33.07-22.17-36.22-39.35S176.73,146.87,192,133.64c7.17-6.23,70.63-18.54,110.33-4.45,7.41,2.64,45.91,78.17,44,98.38C345,241,317,272.11,309.31,276S206.45,282.12,189.42,274.78Z" style="fill:#FFC727"></path><path d="M239.25,126a35.12,35.12,0,0,1,7.79-10.2c3.25-2.85,10.56-7.13,12.62-5.37,2.79,2.36-5.05,4.84-13.92,11.24,0,0,11.85-5.57,14.69-3.46s-14.09,4.9-14.09,4.9Z" style="fill:#FFC727"></path><g style="opacity:0.2"><path d="M250.68,249.65q-.09-15.33-.05-30.65c0-20.45.09-40.91,0-61.37,0-5.74-.09-11.48-.13-17.23s0-11.49-.39-17.22a.1.1,0,0,0-.2,0c-.32,5.11-.36,10.24-.42,15.36s-.11,10.23-.17,15.35c-.1,10.24-.12,20.47-.15,30.71-.07,20.43-.27,40.88.33,61.31.17,5.73.34,11.46.59,17.18s.65,11.45,1,17.17c0,.17.27.16.26,0C250.93,270.08,250.75,259.85,250.68,249.65Z" style="fill:#030402"></path><path d="M257.55,194.64a22.62,22.62,0,0,0-3.77-.49,31.72,31.72,0,0,0-3.9,0c-1.27.05-2.52.2-3.78.33a14.23,14.23,0,0,0-3.79.74c-.06,0-.07.11,0,.13a15.38,15.38,0,0,0,3.71.38c1.3,0,2.6.09,3.9.08s2.53,0,3.79-.14a27.65,27.65,0,0,0,3.85-.54A.26.26,0,0,0,257.55,194.64Z" style="fill:#030402"></path><path d="M257.62,169.07a13.84,13.84,0,0,0-1.68-.94c-.57-.31-1.12-.62-1.71-.89s-1.24-.54-1.87-.79l.76-.36a29.35,29.35,0,0,0,3-1.46c.22-.13.13-.52-.14-.49a14.17,14.17,0,0,0-3.14.79c-.77.25-1.51.55-2.24.87-1.17-.39-2.34-.75-3.53-1.09a7.66,7.66,0,0,0-3.34-.49c-.08,0-.05.11,0,.13A30.3,30.3,0,0,1,247,165.7c.63.32,1.28.62,1.92.92-.74.41-1.46.85-2.18,1.3a14.85,14.85,0,0,0-1.38,1,6.61,6.61,0,0,0-1.23,1.07.07.07,0,0,0,.08.11,8.48,8.48,0,0,0,1.51-.6c.46-.2.91-.4,1.36-.62,1-.49,2.07-.9,3.09-1.38l.33-.15c1.09.47,2.2.87,3.32,1.23.59.19,1.18.32,1.77.47a15.05,15.05,0,0,0,1.88.43A.21.21,0,0,0,257.62,169.07Z" style="fill:#030402"></path><path d="M255.53,153.82a24.56,24.56,0,0,0-5.17.83c-.83.25-1.65.54-2.46.86-.38.14-.74.32-1.1.49a2.48,2.48,0,0,0-1,.63.08.08,0,0,0,0,.12,2.32,2.32,0,0,0,1-.08c.43-.09.86-.17,1.28-.27l2.55-.59c1.7-.38,3.33-.93,5-1.38A.31.31,0,0,0,255.53,153.82Z" style="fill:#030402"></path><path d="M255,135.16a24.68,24.68,0,0,0-5.08-.44c-.83,0-1.67,0-2.5.08l-1.35.07a1.76,1.76,0,0,0-1,.18.06.06,0,0,0,0,.1,1.62,1.62,0,0,0,.95.23l1.23.13c.83.09,1.67.16,2.5.21a24.42,24.42,0,0,0,5.2-.15C255.18,135.54,255.26,135.21,255,135.16Z" style="fill:#030402"></path></g><path d="M231.26,214.67c-8.95,4.39-22.2,39.74-15.16,48.12s58.58,9.22,67.42-.34-8.18-43.28-14.6-47.19S239.59,210.59,231.26,214.67Z" style="fill:#fff;opacity:0.6000000000000001"></path><path d="M212.79,212.93c-3.94-.13-7.43,3.82-7.58,8.58s3,8.93,7,9.06,7.43-3.81,7.58-8.57S216.74,213.06,212.79,212.93Z" style="fill:#263238"></path><path d="M218.61,217.5c-.09-.15-.35-.07-.29.11,2.12,6.75-.61,14.84-8.46,15.58a.1.1,0,0,0,0,.2C218.58,234.2,222.61,224.46,218.61,217.5Z" style="fill:#263238"></path><path d="M287.21,212.93c3.94-.13,7.43,3.82,7.58,8.58s-3,8.93-7,9.06-7.43-3.81-7.58-8.57S283.26,213.06,287.21,212.93Z" style="fill:#263238"></path><path d="M281.39,217.5c.09-.15.35-.07.29.11-2.12,6.75.61,14.84,8.46,15.58a.1.1,0,0,1,0,.2C281.42,234.2,277.39,224.46,281.39,217.5Z" style="fill:#263238"></path><path d="M215.76,195.56c-.52-2.11-3.11-2.19-4.8-1.81a18.12,18.12,0,0,0-6.31,2.49c-1.9,1.37-1.63,4.68,1.12,4.77a18.71,18.71,0,0,0,6.3-1.27C213.82,199.14,216.33,197.86,215.76,195.56Z" style="fill:#263238"></path><path d="M284.24,195.56c.52-2.11,3.11-2.19,4.8-1.81a18.12,18.12,0,0,1,6.31,2.49c1.9,1.37,1.63,4.68-1.12,4.77a18.71,18.71,0,0,1-6.3-1.27C286.18,199.14,283.67,197.86,284.24,195.56Z" style="fill:#263238"></path><path d="M250.13,229.15c-4.36-.14-15.32-8.11-13.93-12.63s24.33-3.72,27.4-.25S252.58,229.23,250.13,229.15Z" style="fill:#263238"></path><circle cx="310.22" cy="236.71" r="11.45" transform="translate(-0.69 472.52) rotate(-74.52)" style="fill:#ff99ba"></circle><circle cx="189.78" cy="236.71" r="11.45" transform="translate(-112.78 214.21) rotate(-47.03)" style="fill:#ff99ba"></circle><g style="opacity:0.2"><path d="M187,139.15a70.25,70.25,0,0,0-8.1,11.29A108.88,108.88,0,0,0,173,163.05c-1,2.42-1.94,4.82-2.73,7.3-.05.14.17.22.24.09,1.14-2,2.13-4.07,3.16-6.13s2.09-4.1,3.13-6.16q3.14-6.15,6.59-12.11a72.69,72.69,0,0,1,4.13-6.54C187.69,139.22,187.22,138.88,187,139.15Z" style="fill:#030402"></path><path d="M189.07,136.3a12.69,12.69,0,0,0-7.49,1.89,15.78,15.78,0,0,0-3,2.35,26,26,0,0,0-2.57,3c-.06.07,0,.16.1.1a18.86,18.86,0,0,1,6.18-4.12,51.44,51.44,0,0,1,6.91-2.42A.4.4,0,0,0,189.07,136.3Z" style="fill:#030402"></path><path d="M193.38,134.37a16.94,16.94,0,0,0-4-.63,18.85,18.85,0,0,0-4.11.25,22.9,22.9,0,0,0-7.53,2.87c-.07,0,0,.15.06.12a32,32,0,0,1,7.69-1.75c1.27-.17,2.55-.24,3.83-.31s2.67,0,4,0A.29.29,0,0,0,193.38,134.37Z" style="fill:#030402"></path><path d="M213.6,127c-1.94,0-3.88.2-5.81.38a31.2,31.2,0,0,0-5.6,1,40.75,40.75,0,0,0-5.28,2,26.65,26.65,0,0,0-2.42,1.29c-.87.51-1.64,1.16-2.49,1.68-.07,0,0,.16.07.11a17.07,17.07,0,0,1,2.7-1.17c.86-.35,1.75-.61,2.63-.91a49.1,49.1,0,0,1,5.36-1.41c1.81-.41,3.63-.83,5.42-1.33s3.66-.84,5.46-1.4A.12.12,0,0,0,213.6,127Z" style="fill:#030402"></path><path d="M304.54,130.22a15.56,15.56,0,0,0-4.66-2.87,26.7,26.7,0,0,0-6.08-1.59c-2.12-.32-4.26-.28-6.4-.47-.14,0-.16.23,0,.25a57.07,57.07,0,0,1,5.94,1.28,31,31,0,0,1,5.7,1.91,25.07,25.07,0,0,1,4.4,2.55,50.7,50.7,0,0,1,3.93,3.53.29.29,0,0,0,.48-.29A12.28,12.28,0,0,0,304.54,130.22Z" style="fill:#030402"></path><path d="M322.73,135.91a11.63,11.63,0,0,0-7.09-2.58,14.37,14.37,0,0,0-3.76.29,9.54,9.54,0,0,0-1.88.59c-.37.15-1,.36-1.14.79a.07.07,0,0,0,0,.08c.34.25,1,0,1.41,0,.59-.08,1.18-.14,1.77-.19a20.45,20.45,0,0,1,3.5,0,23.76,23.76,0,0,1,3.44.58c1.15.29,2.25.72,3.39,1.05A.35.35,0,0,0,322.73,135.91Z" style="fill:#030402"></path><path d="M322.7,142.29a21.1,21.1,0,0,0-6.16-4.34,19.58,19.58,0,0,0-3.48-1.27,10.59,10.59,0,0,0-3.79-.42c-.16,0-.27.27-.08.35,1.07.44,2.23.71,3.34,1.06a34.89,34.89,0,0,1,3.46,1.27,31.85,31.85,0,0,1,6.36,3.71C322.61,142.84,322.93,142.53,322.7,142.29Z" style="fill:#030402"></path><path d="M321.31,157.19c-2.22-4.15-4.46-8.29-6.88-12.33a76.92,76.92,0,0,0-4.34-6.67c-.06-.08-.22,0-.18.08,1.81,4.24,4.14,8.28,6.33,12.33s4.41,8.32,6.71,12.42c1.3,2.32,2.63,4.6,4.09,6.81,0,.07.15,0,.12-.05A101.2,101.2,0,0,0,321.31,157.19Z" style="fill:#030402"></path></g><path d="M226.92,279.3c-3.41-.1-6.8-.33-10.19-.75s-6.6-.67-9.9-1-6.57-.52-9.81-1.06a28.37,28.37,0,0,1-8.43-3c-1.43-.76-2.81-1.6-4.17-2.47l-2-1.34c-.72-.49-1.47-.91-2.21-1.38-.12-.08-.26.11-.15.21.55.5,1.05,1,1.62,1.5s1.25,1,1.88,1.53c1.15.91,2.33,1.78,3.55,2.59a27.21,27.21,0,0,0,8.09,3.74,59.73,59.73,0,0,0,10,1.26c3.42.28,6.87.47,10.3.55,1.87.05,3.74,0,5.61,0s3.9,0,5.85-.11A.1.1,0,0,0,226.92,279.3Z" style="fill:#030402;opacity:0.2"></path><path d="M318.32,268.42a64.31,64.31,0,0,1-6,4.9,37.7,37.7,0,0,1-3.2,2.12,9.65,9.65,0,0,1-3.8,1c-5.6.62-11.2,1.27-16.8,1.87-3.18.35-6.36.69-9.56.83-.28,0-.36.48-.05.52,5.8.78,11.65,0,17.44-.61l8.78-.94a13.05,13.05,0,0,0,4.1-.91,17.48,17.48,0,0,0,3.3-2.15,28.54,28.54,0,0,0,6.1-6.41C318.71,268.45,318.45,268.3,318.32,268.42Z" style="fill:#030402;opacity:0.2"></path><path d="M245.85,299.14a26.66,26.66,0,0,1-.46,6.15C243.77,313,233.3,321,233.3,321c-5.52-.87-11.51-9.72-11.51-9.72s14.44-6.53,16.11-10.49a30.17,30.17,0,0,0,1.23-4.07c1.23-5,2.48-11.74,4.2-13.06l3.42,1.12C244.52,288.23,245.71,293.51,245.85,299.14Z" style="fill:#455a64"></path><path d="M246.75,284.75c-2.23,3.48-1,8.76-.9,14.39a28.71,28.71,0,0,1-6.72-2.45c1.23-5,2.48-11.74,4.2-13.06Z" style="mix-blend-mode:multiply;opacity:0.2"></path><path d="M267.73,320s-11-7.24-13.09-14.86a25.5,25.5,0,0,1-.83-5.44c-.33-5.87.68-11.51-1.86-15l3.34-1.35c2.2,1.48,4.24,11.14,6.06,15.67a10,10,0,0,0,.47,1.07c1.93,3.85,16.76,9.41,16.76,9.41S272.63,318.58,267.73,320Z" style="fill:#455a64"></path><path d="M261.35,299c-.53.12-1.05.22-1.54.31a24.88,24.88,0,0,1-6,.33c-.33-5.87.68-11.51-1.86-15l3.34-1.35C257.49,284.85,259.53,294.51,261.35,299Z" style="mix-blend-mode:multiply;opacity:0.2"></path><path d="M251.26,288c.93-.95-20.54-27.85-28.75-26.68s-11.72,19.45-5,26.63C223.38,294.23,248.58,290.72,251.26,288Z" style="fill:#455a64"></path><path d="M249.32,288.35c1-.19-28.24-13.21-32.93-5.49C214.84,285.41,218.13,294.55,249.32,288.35Z" style="mix-blend-mode:multiply;opacity:0.2"></path><path d="M249.09,287.74c-1-.91,19.66-28.47,27.9-27.56s12.33,19.08,5.84,26.46C277.15,293.1,251.85,290.38,249.09,287.74Z" style="fill:#455a64"></path><path d="M251,288c-1-.16,27.81-14.09,32.74-6.52C285.41,284,282.41,293.26,251,288Z" style="mix-blend-mode:multiply;opacity:0.2"></path><path d="M248.23,286.53c-3.37-6.17-10.16-9.84-16.84-11.42-.26-.06-.42.33-.17.44,6.36,2.71,12.23,5.63,16.5,11.31A.3.3,0,0,0,248.23,286.53Z" style="mix-blend-mode:multiply;opacity:0.2"></path><path d="M269.38,271.67c-3.76,1.09-7.36,3.63-10.34,6.12-2.82,2.36-5.83,5.23-7.45,8.59a.21.21,0,0,0,.34.25c2.8-2.82,5.13-5.9,8.27-8.39,3-2.36,6.27-3.95,9.49-5.9A.37.37,0,0,0,269.38,271.67Z" style="mix-blend-mode:multiply;opacity:0.2"></path><path d="M254.5,287.64a5.13,5.13,0,0,1-3.74,3.41,4.19,4.19,0,0,1-4.82-1.39,8.48,8.48,0,0,1-1.82-5.38c-.92-3.43,3.07-5.57,6.32-5.09a5.85,5.85,0,0,1,4.58,3.13C255.88,284.17,255.19,285.86,254.5,287.64Z" style="fill:#455a64"></path></g></svg>